<?xml version="1.0" standalone="no"?>
<!DOCTYPE svg PUBLIC "-//W3C//DTD SVG 20010904//EN"
 "http://www.w3.org/TR/2001/REC-SVG-20010904/DTD/svg10.dtd">
<svg version="1.0" xmlns="http://www.w3.org/2000/svg"
 width="461.000000pt" height="461.000000pt" viewBox="0 0 461.000000 461.000000"
 preserveAspectRatio="xMidYMid meet">
<metadata>
Created by potrace 1.14, written by Peter Selinger 2001-2017
</metadata>
<g transform="translate(0.000000,461.000000) scale(0.100000,-0.100000)"
fill="#000000" stroke="none">
<path d="M681 3660 c-96 -15 -119 -23 -155 -49 -22 -17 -76 -49 -118 -71 -207
-105 -337 -258 -382 -450 -24 -102 -20 -178 15 -283 25 -76 44 -111 110 -199
71 -95 88 -111 162 -156 120 -72 139 -81 251 -114 89 -27 116 -31 226 -31 105
0 133 3 178 22 29 11 82 23 117 25 92 6 244 79 279 135 14 22 38 54 54 73 16
18 39 48 50 66 11 20 23 29 26 23 9 -14 89 -14 102 -1 6 6 25 -9 53 -45 24
-30 52 -57 62 -60 11 -4 37 -33 59 -66 23 -32 48 -59 56 -59 9 0 29 -10 44
-22 16 -13 40 -31 55 -41 41 -29 105 -116 105 -143 0 -14 11 -36 25 -50 28
-28 32 -44 10 -44 -23 0 -30 -48 -12 -86 19 -40 7 -46 -18 -8 -14 21 -21 24
-48 19 -18 -4 -47 -21 -65 -39 -26 -26 -33 -41 -34 -73 -1 -63 15 -83 65 -83
33 -1 38 -3 25 -11 -21 -11 -23 -50 -7 -82 17 -31 28 -37 72 -37 32 0 46 7 78
40 43 43 38 43 104 0 30 -20 54 -32 101 -50 14 -6 22 -15 19 -20 -4 -6 -11 -8
-16 -5 -5 4 -9 -2 -9 -11 0 -15 -3 -15 -20 4 -22 23 -46 31 -34 10 4 -6 7 -26
6 -44 -2 -43 21 -66 62 -62 23 2 30 -1 27 -12 -16 -61 14 -136 60 -152 27 -9
29 -14 24 -40 -5 -22 -2 -35 13 -51 11 -12 25 -39 32 -60 6 -20 20 -42 31 -47
10 -6 19 -18 19 -28 0 -9 17 -67 38 -127 l37 -110 -41 0 c-81 0 -118 -74 -70
-138 28 -37 46 -43 156 -55 41 -5 81 -17 110 -34 135 -78 172 -104 191 -135
12 -20 29 -33 41 -33 11 0 32 -8 46 -18 15 -10 41 -24 57 -30 43 -17 226 -62
251 -62 11 0 35 -11 54 -25 58 -43 121 -26 134 36 l6 33 28 -27 c33 -32 62
-34 87 -7 14 16 17 30 11 74 -5 45 -3 58 15 80 26 33 32 33 77 -3 41 -33 91
-45 128 -31 19 8 24 17 24 45 0 27 -9 45 -40 79 -44 48 -55 91 -19 78 13 -5
32 -33 48 -71 35 -78 43 -86 69 -72 14 8 21 25 27 66 6 49 3 62 -23 115 -28
55 -29 61 -13 69 14 8 21 4 34 -18 9 -16 29 -34 45 -40 15 -6 32 -22 37 -34
14 -30 60 -35 75 -8 6 12 17 21 25 21 8 0 18 8 24 17 7 14 11 10 20 -25 12
-42 42 -72 73 -72 35 0 87 -33 99 -64 7 -17 19 -39 27 -48 20 -23 67 -23 84 0
7 10 27 25 43 33 60 29 39 102 -34 115 -31 6 -101 39 -101 49 0 2 13 -2 30 -8
25 -9 33 -9 47 5 15 15 15 23 3 75 -11 48 -22 67 -63 106 -52 52 -53 58 -26
125 10 23 11 39 3 60 -6 15 -7 40 -3 56 10 37 4 48 -53 88 l-47 34 34 27 c41
33 46 68 14 107 -11 14 -35 48 -54 77 -19 29 -56 69 -84 90 -66 51 -74 70 -65
162 11 134 -29 188 -134 179 -51 -5 -65 -1 -127 30 -85 42 -178 114 -205 158
-31 49 -94 102 -156 129 -71 31 -149 97 -174 145 -11 21 -39 53 -62 71 -49 38
-69 57 -84 85 -6 10 -31 32 -55 49 -24 16 -80 67 -124 113 -44 46 -100 95
-125 109 -25 15 -69 49 -97 77 -49 47 -53 54 -53 98 0 71 -16 78 -169 78 -116
0 -127 2 -170 27 -58 33 -174 114 -183 128 -4 5 -8 34 -8 63 0 45 -4 57 -27
79 -40 37 -101 63 -151 63 -28 0 -63 11 -102 31 -50 26 -64 29 -92 21 -18 -5
-71 -10 -118 -11 -80 -2 -89 -5 -147 -42 l-63 -39 -36 39 c-19 22 -52 45 -72
52 -20 6 -48 20 -62 29 -32 23 -228 77 -305 85 -135 13 -263 12 -374 -5z m80
-272 c-6 -18 -24 -27 -76 -41 -37 -10 -70 -15 -73 -12 -18 18 81 72 135 74 19
1 21 -2 14 -21z m-307 -17 c7 -11 -18 -21 -52 -21 l-27 1 30 14 c37 17 42 17
49 6z m-228 -50 c-4 -5 0 -11 6 -14 10 -3 8 -9 -4 -23 -10 -10 -21 -15 -24
-11 -8 7 11 57 21 57 4 0 4 -4 1 -9z m81 -24 c-7 -12 -31 -41 -54 -65 -27 -26
-43 -51 -43 -66 0 -21 -26 -44 -37 -33 -9 9 54 103 96 143 25 24 47 44 48 44
1 0 -4 -10 -10 -23z m33 -46 c0 -5 -7 -11 -14 -14 -10 -4 -13 -1 -9 9 6 15 23
19 23 5z m1033 -142 c13 -6 32 -28 41 -50 21 -47 59 -69 121 -69 39 0 45 3 45
21 0 11 4 18 9 15 11 -7 9 -25 -3 -45 -5 -7 -3 -29 4 -52 10 -29 10 -45 2 -61
-7 -16 -11 -18 -11 -7 -1 9 -16 20 -36 26 -19 6 -35 10 -35 8 0 -2 15 -18 33
-34 24 -24 28 -31 15 -31 -10 0 -18 8 -19 18 0 15 -1 15 -8 -1 -6 -16 -9 -17
-18 -5 -6 7 -14 25 -18 41 -4 15 -11 27 -17 27 -14 0 -53 49 -79 100 -13 24
-33 53 -44 63 -20 18 -20 18 4 11 16 -4 21 -3 17 5 -4 6 -20 11 -37 11 -16 0
-29 5 -29 10 0 13 33 13 63 -1z m137 -55 c0 -8 6 -14 13 -14 7 0 5 -5 -5 -11
-20 -11 -68 -2 -68 14 0 6 8 18 18 27 18 19 42 9 42 -16z m-1358 -46 c-8 -8
-9 -4 -5 13 4 13 8 18 11 10 2 -7 -1 -18 -6 -23z m1408 12 c0 -5 -2 -10 -4
-10 -3 0 -8 5 -11 10 -3 6 -1 10 4 10 6 0 11 -4 11 -10z m-676 -116 c14 3 26
0 26 -5 0 -6 5 -7 10 -4 6 3 10 1 10 -4 0 -6 -11 -11 -25 -11 -44 0 -56 -69
-11 -71 20 0 19 -1 -3 -10 -38 -15 -51 -4 -51 40 0 22 -4 42 -10 46 -5 3 -7
12 -3 21 4 10 9 12 18 4 7 -6 25 -9 39 -6z m471 -62 c-12 -8 -20 -121 -10
-151 3 -12 12 -21 20 -21 7 0 19 -16 25 -36 12 -35 11 -37 -26 -75 -38 -39
-39 -39 -48 -17 -5 13 -9 32 -10 43 -2 25 -25 67 -26 45 0 -11 -3 -11 -12 -2
-7 7 -30 12 -51 12 l-39 0 31 29 c17 16 42 54 56 85 14 31 30 56 37 56 6 0 8
3 5 7 -9 8 23 32 43 33 9 0 11 -3 5 -8z m735 -762 c0 -5 -4 -10 -10 -10 -5 0
-10 5 -10 10 0 6 5 10 10 10 6 0 10 -4 10 -10z m141 -184 l19 -51 -26 33 c-16
20 -34 32 -49 32 l-24 0 21 36 c24 41 27 39 59 -50z m-191 -30 c0 -2 -7 -7
-16 -10 -8 -3 -12 -2 -9 4 6 10 25 14 25 6z m220 -52 c0 -8 -5 -12 -10 -9 -6
4 -8 11 -5 16 9 14 15 11 15 -7z m1757 -786 c-3 -8 -6 -5 -6 6 -1 11 2 17 5
13 3 -3 4 -12 1 -19z m17 -43 c14 -14 39 -28 56 -32 17 -3 37 -14 44 -24 7
-10 15 -17 17 -15 2 3 12 -8 21 -24 13 -23 14 -29 3 -34 -8 -3 -12 0 -9 7 6
17 -30 49 -91 81 -64 33 -71 33 -80 -6 -4 -21 -9 -28 -12 -18 -3 8 -11 18 -17
22 -7 5 -7 8 2 8 9 0 11 7 7 21 -6 18 -4 20 14 14 16 -5 20 -3 15 9 -9 23 1
20 30 -9z m295 -141 c2 -2 -14 -4 -37 -4 -23 0 -42 5 -42 10 0 10 67 4 79 -6z
m71 -4 c10 -19 10 -20 -9 -8 -11 6 -17 16 -15 20 8 12 12 10 24 -12z m-1791
-25 c-3 -3 -20 -2 -38 1 -22 5 -28 9 -20 15 7 4 17 5 21 3 4 -3 8 1 8 8 0 8 5
7 17 -5 9 -9 14 -19 12 -22z m1531 1 c0 -24 -18 -28 -30 -6 -9 17 -8 20 10 20
11 0 20 -6 20 -14z"/>
<path d="M1492 2973 c-28 -6 -19 -23 13 -23 13 0 27 -4 30 -10 3 -5 -2 -10
-11 -10 -10 0 -14 -3 -11 -7 10 -9 57 -10 57 -2 0 19 -14 39 -26 39 -8 0 -14
5 -14 10 0 6 -3 9 -7 9 -5 -1 -18 -4 -31 -6z"/>
<path d="M2787 3144 c-3 -11 -5 -41 -5 -69 0 -83 30 -98 81 -40 17 19 37 35
44 35 18 0 17 55 -2 70 -9 7 -38 15 -64 18 -42 4 -50 2 -54 -14z m97 -33 c3
-5 -1 -11 -9 -15 -9 -3 -15 0 -15 9 0 16 16 20 24 6z"/>
<path d="M1644 2516 c-14 -36 0 -51 46 -51 40 0 45 3 48 24 2 13 -2 28 -10 32
-22 14 -78 10 -84 -5z m66 -15 c0 -15 -16 -22 -35 -15 -13 5 -14 8 -3 15 18
12 38 11 38 0z"/>
<path d="M1497 2483 c-3 -5 -1 -17 4 -28 7 -17 8 -17 8 8 1 27 -4 34 -12 20z"/>
<path d="M1530 2480 c0 -5 5 -10 11 -10 5 0 7 5 4 10 -3 6 -8 10 -11 10 -2 0
-4 -4 -4 -10z"/>
<path d="M1530 2449 c0 -5 5 -7 10 -4 6 3 10 8 10 11 0 2 -4 4 -10 4 -5 0 -10
-5 -10 -11z"/>
<path d="M1479 2400 c-11 -7 -19 -31 -24 -75 -8 -79 -1 -105 28 -105 25 1 57
22 57 37 0 6 7 24 15 39 39 75 -11 142 -76 104z"/>
<path d="M1630 2337 c0 -9 -7 -17 -15 -17 -10 0 -15 -10 -15 -30 0 -16 4 -30
9 -30 19 0 20 -31 1 -38 -13 -5 -16 -12 -11 -20 14 -22 79 51 75 85 -3 32 -44
78 -44 50z"/>
<path d="M1745 2299 c-10 -32 4 -88 25 -99 10 -5 28 -10 39 -10 24 0 25 -5 10
-49 -16 -45 -4 -80 32 -95 40 -17 75 -9 98 20 11 14 29 24 45 24 31 0 45 38
28 75 -11 23 -25 29 -114 49 -24 5 -26 9 -21 40 4 27 1 36 -18 50 -34 23 -58
20 -65 -9 -3 -14 -12 -25 -20 -25 -8 0 -14 10 -14 25 0 30 -16 33 -25 4z m125
-93 c0 -2 -7 -7 -16 -10 -8 -3 -12 -2 -9 4 6 10 25 14 25 6z"/>
<path d="M4008 2203 c6 -2 18 -2 25 0 6 3 1 5 -13 5 -14 0 -19 -2 -12 -5z"/>
<path d="M1670 2172 c0 -4 5 -13 12 -20 16 -16 28 -15 28 2 0 8 -7 17 -16 20
-21 8 -24 8 -24 -2z"/>
<path d="M1646 2125 c4 -8 10 -15 15 -15 5 0 9 7 9 15 0 8 -7 15 -15 15 -9 0
-12 -6 -9 -15z"/>
<path d="M1690 2120 c0 -5 5 -10 10 -10 6 0 10 5 10 10 0 6 -4 10 -10 10 -5 0
-10 -4 -10 -10z"/>
<path d="M4032 2043 c2 -22 9 -29 29 -31 21 -3 27 2 31 22 6 32 2 36 -34 36
-26 0 -29 -3 -26 -27z"/>
<path d="M1706 1925 c-19 -19 -12 -39 21 -60 29 -19 53 -6 53 29 0 43 -44 61
-74 31z m39 -25 c3 -5 1 -10 -4 -10 -6 0 -11 5 -11 10 0 6 2 10 4 10 3 0 8 -4
11 -10z"/>
<path d="M1618 1863 c-20 -22 -8 -58 21 -68 20 -6 26 -20 23 -55 0 -10 9 -16
28 -17 36 -3 70 36 70 78 0 58 -105 103 -142 62z"/>
<path d="M1852 1812 c-19 -13 -33 -71 -22 -93 13 -23 -14 -95 -41 -110 -22
-11 -27 -68 -6 -70 6 -1 19 -3 27 -3 8 -1 32 -10 53 -21 42 -21 70 -13 75 22
2 15 9 19 32 15 26 -4 30 -1 30 21 0 13 -9 36 -20 50 -11 14 -20 31 -20 38 0
7 -7 21 -17 31 -15 17 -15 18 0 18 12 0 17 9 17 30 0 31 -30 70 -54 70 -8 0
-20 2 -28 5 -7 3 -19 1 -26 -3z m52 -114 c-3 -4 -12 -8 -20 -8 -8 0 -13 4 -10
8 3 5 12 9 20 9 8 0 13 -4 10 -9z"/>
<path d="M4205 1720 c3 -5 8 -10 11 -10 2 0 4 5 4 10 0 6 -5 10 -11 10 -5 0
-7 -4 -4 -10z"/>
<path d="M2010 1671 c0 -33 2 -34 38 -25 34 10 26 48 -10 52 -25 3 -28 0 -28
-27z m35 -1 c3 -5 1 -10 -4 -10 -6 0 -11 5 -11 10 0 6 2 10 4 10 3 0 8 -4 11
-10z"/>
<path d="M2150 1693 c-36 -14 -53 -70 -27 -91 6 -6 28 -13 47 -17 29 -5 40 -2
63 19 30 27 34 51 13 79 -13 17 -64 22 -96 10z"/>
<path d="M2255 1580 c-3 -5 -1 -10 4 -10 6 0 11 5 11 10 0 6 -2 10 -4 10 -3 0
-8 -4 -11 -10z"/>
<path d="M2207 1403 c-13 -13 -7 -56 11 -69 19 -15 72 -19 72 -5 0 5 3 16 6
24 12 32 -65 75 -89 50z"/>
<path d="M2061 1334 c-30 -22 -29 -77 3 -97 21 -14 26 -14 45 -1 21 15 29 67
13 90 -13 19 -39 23 -61 8z"/>
<path d="M2330 1304 c-25 -44 -23 -75 7 -90 13 -6 31 -18 40 -26 10 -9 29 -15
43 -14 29 1 31 15 11 94 -14 56 -18 61 -55 68 -19 3 -28 -3 -46 -32z"/>
<path d="M2173 1293 c-24 -5 -25 -7 -25 -86 0 -36 7 -56 27 -82 38 -51 14 -43
-43 13 -46 47 -71 56 -100 38 -21 -13 -14 -67 16 -105 15 -20 35 -53 44 -73
18 -40 46 -53 99 -46 24 4 34 0 46 -19 17 -26 46 -29 106 -12 47 13 66 46 49
84 -18 38 -56 33 -103 -14 -22 -21 -41 -35 -44 -31 -2 4 7 18 21 31 30 28 59
79 45 79 -6 0 -6 12 0 32 16 56 11 86 -16 104 -16 11 -25 26 -25 43 0 46 -26
58 -97 44z m-73 -153 c0 -4 -8 -15 -19 -24 -17 -15 -19 -15 -25 -1 -10 27 -7
33 19 33 14 0 25 -4 25 -8z"/>
<path d="M2397 853 c-13 -12 -7 -48 12 -72 29 -38 100 -30 101 12 0 5 -13 22
-29 38 -27 27 -69 38 -84 22z"/>
<path d="M4016 702 c-3 -5 -2 -18 1 -30 4 -16 13 -22 32 -22 24 0 28 4 28 30
0 26 -4 30 -28 30 -15 0 -30 -4 -33 -8z m30 -29 c-10 -10 -19 5 -10 18 6 11 8
11 12 0 2 -7 1 -15 -2 -18z"/>
</g>
</svg>
