<?xml version="1.0" standalone="no"?>
<!DOCTYPE svg PUBLIC "-//W3C//DTD SVG 20010904//EN"
 "http://www.w3.org/TR/2001/REC-SVG-20010904/DTD/svg10.dtd">
<svg version="1.0" xmlns="http://www.w3.org/2000/svg"
 width="500.000000pt" height="500.000000pt" viewBox="0 0 500.000000 500.000000"
 preserveAspectRatio="xMidYMid meet">

<g transform="translate(0.000000,500.000000) scale(0.100000,-0.100000)"
fill="#000000" stroke="none">
<path d="M1085 3993 c-185 -16 -259 -35 -300 -73 -18 -17 -51 -36 -175 -100
-63 -33 -176 -155 -211 -228 -50 -106 -60 -141 -66 -232 -5 -79 -3 -91 29
-175 23 -62 55 -119 102 -182 59 -81 77 -98 149 -141 97 -57 130 -73 216 -102
76 -25 264 -44 292 -29 11 5 24 7 29 4 5 -3 36 3 68 14 33 11 84 22 115 25 36
3 84 18 140 45 77 36 89 46 127 100 22 34 44 61 48 61 13 0 52 66 52 88 0 12
4 22 9 22 4 0 6 -12 3 -26 -5 -27 -5 -27 49 -22 l55 4 38 -48 c22 -26 47 -50
57 -53 9 -3 31 -27 48 -54 17 -26 42 -53 55 -59 44 -20 124 -82 151 -118 15
-19 31 -52 37 -72 5 -20 19 -45 31 -55 21 -17 21 -18 3 -31 -19 -15 -22 -42
-10 -91 l7 -30 -22 28 c-26 32 -56 29 -108 -11 -28 -21 -33 -31 -33 -66 0 -23
7 -52 16 -65 17 -24 26 -24 104 -6 14 3 9 -1 -12 -10 -43 -20 -51 -34 -37 -75
21 -58 122 -61 153 -5 6 11 15 23 20 27 9 6 62 -19 120 -57 12 -8 26 -12 29
-9 8 8 37 -14 37 -27 0 -5 -7 -9 -16 -9 -8 0 -12 -4 -9 -10 10 -16 -7 -12 -27
7 -19 17 -19 16 -16 -32 3 -49 4 -50 37 -55 34 -5 35 -7 36 -50 2 -51 24 -92
59 -108 17 -7 23 -19 24 -42 0 -18 8 -40 16 -49 9 -10 16 -24 16 -31 0 -8 11
-25 24 -39 13 -15 28 -44 34 -66 6 -22 22 -74 36 -115 14 -41 26 -76 26 -77 0
-2 -11 -3 -25 -3 -40 0 -84 -27 -91 -57 -10 -40 24 -94 69 -109 20 -7 62 -15
94 -17 55 -5 116 -29 152 -60 9 -8 35 -24 59 -36 25 -13 52 -37 64 -57 11 -18
26 -34 34 -34 8 0 31 -9 52 -19 57 -29 181 -68 242 -75 32 -4 71 -17 92 -32
58 -38 98 -28 117 27 l11 32 23 -20 c53 -47 103 -10 92 69 -5 36 -2 48 19 73
l24 30 27 -28 c27 -26 85 -49 115 -44 53 9 55 66 5 124 -26 30 -35 50 -34 75
0 20 3 27 7 18 4 -8 20 -35 36 -59 15 -24 33 -57 38 -73 12 -34 34 -32 31 3
l-3 24 11 -25 c11 -24 12 -23 24 24 11 42 11 56 -1 90 -8 22 -22 48 -31 59
-15 16 -15 19 -3 27 22 14 28 12 34 -8 4 -10 22 -26 40 -35 19 -9 37 -25 41
-36 11 -35 42 -31 87 9 l32 30 13 -44 c14 -46 18 -49 85 -60 37 -7 78 -44 78
-72 0 -41 80 -60 102 -24 7 11 18 20 25 20 19 0 43 30 43 54 0 30 -27 53 -73
61 -21 4 -47 15 -59 24 -20 17 -20 17 16 13 l36 -4 0 41 c0 59 -24 111 -71
152 l-41 35 16 32 c12 23 15 50 12 109 -2 43 -5 79 -5 80 -1 1 -21 16 -46 34
l-45 32 30 19 c38 23 41 73 7 115 -12 15 -36 47 -52 71 -15 24 -46 57 -67 74
-58 46 -67 71 -61 164 5 79 5 82 -24 113 -27 31 -33 33 -93 34 -112 0 -232 74
-345 212 -29 35 -58 57 -110 81 -67 31 -165 111 -165 135 0 6 -29 39 -63 73
-35 33 -68 68 -73 76 -5 8 -34 34 -66 57 -31 23 -78 67 -104 98 -27 31 -71 70
-98 87 -66 43 -129 96 -143 121 -6 12 -9 35 -6 52 9 56 -11 65 -150 65 l-122
0 -60 38 c-147 91 -155 99 -155 147 0 24 -5 54 -11 67 -17 39 -71 69 -136 75
-35 3 -75 15 -101 30 -41 23 -47 24 -170 17 -109 -6 -131 -10 -157 -29 -66
-49 -71 -50 -112 -6 -20 23 -50 43 -67 47 -17 4 -40 13 -51 20 -69 48 -364
100 -500 87z m374 -102 c8 -5 9 -11 3 -15 -6 -3 -13 -2 -17 4 -4 6 -11 8 -16
4 -5 -3 -7 -8 -5 -12 2 -4 -6 -7 -19 -7 -13 0 -21 3 -18 8 2 4 11 7 19 7 8 0
14 5 14 10 0 12 20 13 39 1z m51 -21 c0 -5 -7 -7 -15 -4 -8 4 -15 8 -15 10 0
2 7 4 15 4 8 0 15 -4 15 -10z m70 -27 c25 -11 62 -37 83 -57 58 -54 79 -56
162 -11 39 21 78 35 86 32 9 -3 6 -6 -8 -6 -12 -1 -29 -9 -39 -18 -10 -10 -20
-18 -23 -18 -3 0 -5 -4 -3 -8 1 -4 -4 -7 -12 -5 -8 2 -22 -6 -31 -17 -9 -11
-14 -13 -10 -5 6 13 5 13 -7 0 -7 -8 -19 -16 -26 -18 -15 -3 -72 34 -85 55 -4
7 -39 31 -77 53 -39 23 -70 43 -70 46 0 3 3 4 8 2 4 -2 27 -13 52 -25z m-652
-2 c11 -6 30 -11 42 -11 15 0 20 -5 17 -14 -3 -8 -3 -17 1 -19 4 -2 1 -2 -7 0
-8 2 -25 -4 -39 -13 -20 -13 -26 -14 -33 -3 -5 8 -3 17 4 21 27 17 -31 7 -66
-12 -20 -11 -47 -20 -59 -20 -30 0 -147 -48 -183 -75 -17 -13 -42 -34 -55 -49
-38 -39 -57 -34 -31 10 26 44 27 56 1 25 -11 -13 -20 -19 -20 -14 0 28 171
150 247 177 42 14 152 13 181 -3z m437 -40 c2 -28 -20 -34 -40 -11 -11 12 -14
26 -10 39 6 19 8 20 28 6 11 -8 21 -23 22 -34z m60 -22 c9 -17 31 -37 51 -45
31 -13 34 -18 34 -54 0 -34 -4 -42 -31 -55 -17 -9 -33 -14 -37 -11 -3 3 0 6 6
6 14 0 52 36 52 49 0 5 -9 7 -19 4 -13 -3 -21 2 -25 15 -6 19 -59 66 -77 68
-5 1 -11 2 -14 3 -5 1 35 48 42 50 1 1 10 -13 18 -30z m-525 -8 c0 -5 -10 -25
-22 -44 -20 -30 -29 -35 -65 -36 -62 -3 -73 -4 -69 -9 2 -2 -16 -23 -40 -47
-46 -46 -55 -74 -29 -95 14 -12 14 -15 -3 -34 -11 -12 -27 -53 -37 -93 -18
-69 -18 -74 0 -150 10 -43 21 -80 25 -83 11 -8 61 -103 56 -107 -2 -2 -13 8
-25 23 -19 24 -21 25 -21 6 0 -21 75 -105 125 -139 49 -33 172 -63 256 -62
l74 1 -55 9 c-30 5 -68 13 -85 19 l-30 10 30 -5 c150 -24 193 -17 342 56 29
14 53 23 53 18 0 -4 -27 -20 -60 -35 -82 -37 -76 -50 8 -17 103 40 182 43 182
8 0 -8 5 -15 11 -15 14 0 3 50 -14 67 -10 10 -42 19 -82 22 -5 1 2 11 17 24
29 24 78 113 88 162 4 21 12 30 25 30 21 0 21 5 14 -123 -2 -48 0 -54 31 -82
38 -34 38 -31 -39 -112 -25 -27 -53 -48 -64 -48 -10 0 -36 -9 -57 -20 -22 -11
-40 -18 -40 -15 0 2 -26 -5 -57 -16 -233 -88 -361 -91 -552 -15 -66 27 -151
73 -151 82 0 4 8 3 18 -1 15 -5 -22 38 -86 102 -13 13 -43 57 -68 99 -45 76
-64 145 -59 209 1 17 3 56 3 88 2 45 5 57 18 57 14 0 16 -8 10 -52 -13 -97
-13 -101 9 -103 11 -1 30 -5 43 -9 16 -6 22 -3 22 8 0 10 -9 16 -25 16 -16 0
-25 6 -25 15 0 8 5 15 11 15 5 0 8 4 5 8 -8 14 16 92 28 92 7 0 17 -5 24 -12
9 -9 12 -8 12 5 0 11 6 17 17 15 10 -2 19 4 21 14 3 15 -2 17 -26 12 -17 -3
-38 -1 -49 5 -17 10 -17 10 0 11 10 0 16 4 13 8 -3 5 10 24 29 42 19 19 35 40
35 47 0 7 7 13 16 13 10 0 14 6 11 14 -3 8 3 22 14 32 27 24 24 37 -5 22 -26
-14 -135 -132 -137 -148 -1 -6 -2 -15 -3 -20 -1 -14 -28 -30 -37 -24 -12 7 65
116 107 154 21 18 63 44 93 57 31 13 64 28 73 33 10 6 28 10 40 10 13 0 37 9
53 20 32 21 55 26 55 11z m1399 -26 c10 -10 11 -15 3 -15 -7 0 -12 5 -12 11 0
6 -6 9 -13 6 -7 -3 -24 4 -38 14 l-24 19 35 -10 c19 -5 41 -17 49 -25z m-235
17 c3 -5 -1 -9 -9 -9 -8 0 -15 4 -15 9 0 4 4 8 9 8 6 0 12 -4 15 -8z m-1044
-32 c0 -22 -21 -35 -70 -43 -19 -3 -44 -9 -54 -13 -29 -11 -11 12 33 44 47 34
91 40 91 12z m1190 -7 c0 -10 -7 -27 -15 -38 -14 -18 -15 -17 -11 15 3 19 5
36 5 38 3 11 21 -2 21 -15z m40 -8 c0 -8 -4 -15 -10 -15 -5 0 -10 7 -10 15 0
8 5 15 10 15 6 0 10 -7 10 -15z m-815 -45 c-5 -8 -11 -8 -21 1 -12 10 -12 14
-2 20 16 10 33 -5 23 -21z m130 -7 c2 -10 4 -22 4 -27 1 -5 7 -3 14 3 8 6 17
8 20 4 4 -3 13 -1 21 6 11 9 21 8 47 -8 19 -11 59 -23 91 -27 62 -7 75 -24 36
-46 -37 -20 -88 -13 -115 16 -13 14 -29 26 -35 26 -5 0 -8 9 -5 20 7 26 4 25
-32 -11 -33 -32 -39 -44 -18 -34 6 4 4 0 -7 -9 -10 -8 -15 -19 -12 -25 3 -5
-8 -12 -26 -16 -18 -4 -43 -13 -56 -21 -20 -13 -24 -13 -38 1 -18 17 -10 37
11 28 10 -3 20 6 29 29 8 19 22 40 30 47 8 7 18 26 21 42 7 32 14 33 20 2z
m-782 -37 c4 -9 -3 -13 -23 -12 -21 1 -26 4 -18 14 14 16 35 15 41 -2z m-320
-26 c-4 -17 -2 -19 13 -13 17 6 18 5 4 -12 -8 -10 -28 -32 -43 -48 l-28 -31
14 35 c8 19 20 46 26 62 12 31 22 36 14 7z m288 -13 c-10 -9 -11 -8 -5 6 3 10
9 15 12 12 3 -3 0 -11 -7 -18z m1159 -2 c0 -8 -9 -15 -20 -15 -11 0 -20 7 -20
15 0 8 9 15 20 15 11 0 20 -7 20 -15z m-496 -24 c-2 -3 -12 3 -22 13 -16 17
-16 18 5 5 12 -7 20 -15 17 -18z m706 -29 c14 -6 38 -15 54 -21 22 -9 26 -15
18 -23 -7 -7 -12 -20 -12 -30 0 -10 -4 -18 -10 -18 -22 0 -8 -28 19 -40 46
-19 87 -3 97 37 0 1 13 -2 30 -6 16 -5 22 -10 14 -10 -24 -2 -52 -48 -44 -74
6 -20 4 -19 -20 6 -28 30 -47 29 -39 -1 3 -12 -2 -18 -14 -19 -10 -1 -25 -3
-33 -5 -10 -2 -16 6 -18 26 -2 18 0 26 7 22 6 -4 3 6 -6 23 -10 16 -21 27 -25
25 -5 -3 -8 0 -8 6 0 6 -4 9 -9 6 -5 -3 -8 0 -7 7 0 6 -3 13 -9 14 -5 1 -12 9
-15 18 -3 9 -8 15 -11 13 -2 -2 -16 8 -31 22 -17 17 -22 29 -16 37 9 11 33 7
88 -15z m-525 -62 c14 -5 30 -21 35 -35 12 -32 30 -32 30 1 0 22 3 24 23 19
12 -4 26 -11 32 -16 5 -5 17 -9 27 -9 11 0 27 -8 37 -17 16 -15 18 -31 16
-106 -3 -92 -8 -108 -27 -89 -7 7 -8 12 -2 12 6 0 11 7 11 15 0 8 -6 15 -14
15 -7 0 -13 -9 -13 -20 0 -13 -7 -20 -20 -20 -15 0 -20 7 -20 25 0 14 -7 28
-15 31 -8 4 -15 12 -15 20 0 7 -9 18 -20 24 -11 6 -31 32 -44 58 -13 26 -36
57 -50 67 -43 33 -27 46 29 25z m-785 -4 c0 -11 -19 -15 -25 -6 -3 5 1 10 9
10 9 0 16 -2 16 -4z m746 -73 c-7 -7 -26 7 -26 19 0 6 6 6 15 -2 9 -7 13 -15
11 -17z m-791 -3 c9 -15 -14 -50 -30 -44 -11 5 -12 11 -3 30 12 25 23 30 33
14z m1176 -5 c18 2 32 -5 48 -26 13 -16 31 -29 41 -29 9 0 22 -11 28 -25 7
-14 31 -38 55 -53 40 -25 42 -29 33 -55 -12 -33 5 -55 50 -63 52 -9 78 -26
107 -68 l28 -41 -31 33 c-44 47 -48 33 -5 -18 19 -23 35 -36 35 -28 1 7 7 -2
15 -21 8 -18 12 -38 8 -44 -3 -6 -1 -7 5 -3 7 4 12 0 12 -10 0 -10 3 -14 7
-11 3 4 26 -9 50 -29 33 -27 57 -38 98 -43 30 -4 52 -4 49 0 -2 4 0 10 6 14 5
3 10 19 10 35 0 16 5 32 11 36 6 3 9 17 6 30 -5 26 9 35 38 23 16 -6 17 -8 3
-8 -23 -1 -47 -55 -53 -121 -3 -30 -6 -60 -7 -67 -1 -7 -5 -10 -10 -7 -5 3 -6
10 -3 15 4 5 2 9 -3 9 -22 0 -21 -33 1 -60 13 -15 29 -41 36 -57 7 -17 26 -36
44 -44 18 -8 33 -21 35 -30 4 -19 -44 -79 -63 -79 -23 0 -45 30 -45 59 0 16
-7 34 -15 41 -8 7 -15 22 -15 33 0 11 -6 25 -14 31 -7 6 -46 35 -85 65 -54 41
-73 62 -81 90 -10 36 -33 73 -44 72 -8 -1 -54 37 -104 87 -23 23 -48 42 -55
42 -8 0 -9 -2 -1 -8 6 -4 14 -17 18 -29 4 -12 19 -32 34 -45 15 -13 29 -27 30
-33 10 -44 28 -73 55 -90 22 -14 33 -29 35 -50 2 -17 9 -36 14 -43 15 -17 1
-29 -20 -16 -45 28 -103 -3 -70 -37 30 -32 40 -49 30 -49 -6 0 -28 25 -49 57
-21 31 -45 67 -55 81 -9 13 -33 32 -55 42 -36 17 -143 113 -143 130 0 4 -14
13 -30 20 -17 7 -50 34 -73 59 -50 56 -68 64 -95 45 -19 -13 -23 -12 -42 8
l-21 23 23 7 c15 4 17 6 6 7 -9 1 -24 11 -32 23 -14 20 -14 24 -1 38 13 13 17
13 24 1 6 -9 20 -12 41 -9 35 5 54 -17 29 -33 -11 -7 -9 -9 8 -9 27 0 35 20
15 42 -13 16 -12 18 13 30 19 8 31 9 43 1 20 -12 24 -69 5 -65 -7 1 -13 -7
-13 -18 0 -26 17 -26 25 0 5 17 10 18 27 9 13 -7 24 -7 30 -1 11 11 1 52 -13
52 -5 0 -14 11 -19 25 -5 14 -16 25 -24 25 -22 0 -56 49 -56 81 0 32 29 70 45
58 6 -4 22 -6 36 -4z m-911 -4 c0 -21 -13 -41 -26 -41 -8 0 -14 -4 -14 -9 0
-14 -49 -20 -59 -7 -6 7 -1 11 16 13 14 0 34 13 46 27 21 26 37 34 37 17z
m1414 -7 c9 -3 13 -10 10 -15 -3 -5 -10 -7 -15 -4 -5 3 -6 0 -3 -8 6 -17 -34
-59 -48 -51 -5 3 -1 12 8 18 11 9 14 18 8 27 -21 35 -3 50 40 33z m-1554 -13
c0 -5 -9 -11 -21 -14 -17 -5 -19 -9 -10 -25 10 -18 9 -19 -14 -8 -27 12 -33
26 -11 26 7 0 19 7 26 15 14 17 30 20 30 6z m731 -71 c34 -32 79 -98 79 -116
0 -8 -6 -14 -12 -14 -19 0 -43 18 -35 26 3 4 14 1 23 -7 15 -12 17 -12 12 1
-6 20 -38 25 -49 8 -15 -22 -10 -38 11 -38 25 0 28 -46 5 -76 -13 -16 -14 -16
-9 -1 5 13 2 16 -10 11 -23 -9 -20 13 4 26 11 6 17 16 14 22 -5 7 -12 5 -21
-7 -23 -32 -34 -6 -23 54 13 72 13 91 -4 91 -7 0 -19 7 -27 16 -7 8 -21 13
-31 11 -11 -3 -18 0 -18 9 0 8 4 14 9 14 5 0 13 10 17 22 l7 23 16 -25 c9 -14
28 -36 42 -50z m-484 -6 c9 4 27 -1 40 -9 13 -9 32 -14 41 -11 12 4 18 0 19
-13 1 -10 13 -31 28 -47 26 -28 26 -29 6 -38 -12 -5 -21 -13 -21 -18 0 -4 -7
-8 -15 -8 -9 0 -18 -7 -21 -15 -10 -26 -21 -16 -16 15 4 30 0 33 -62 42 -13 2
-23 15 -28 36 -5 17 -13 32 -18 32 -5 0 -16 13 -24 29 -13 25 -13 31 1 51 l16
23 19 -37 c14 -27 24 -36 35 -32z m-331 31 c0 -14 -7 -25 -14 -25 -9 0 -10 5
-2 19 7 14 6 21 -3 24 -7 4 -6 6 4 6 12 1 16 -7 15 -24z m339 5 c3 -5 1 -10
-4 -10 -6 0 -11 5 -11 10 0 6 2 10 4 10 3 0 8 -4 11 -10z m-127 -25 c-3 -13
-2 -22 3 -20 4 3 10 1 14 -5 3 -5 2 -10 -3 -10 -15 0 -21 -35 -9 -55 7 -13 6
-20 -7 -27 -22 -12 -20 -35 4 -55 25 -22 25 -33 1 -33 -12 0 -21 9 -25 25 -6
22 -9 24 -26 15 -16 -9 -20 -8 -20 5 0 8 5 15 11 15 7 0 0 9 -15 21 -14 11
-26 25 -26 30 0 16 28 10 40 -8 9 -16 10 -15 8 7 -2 19 -9 25 -25 24 -13 0
-23 3 -23 8 0 4 9 8 21 8 12 0 23 8 26 20 9 35 22 22 17 -17 -4 -37 -4 -37 6
-8 6 17 12 41 14 55 4 30 4 30 12 30 4 0 4 -11 2 -25z m-220 -40 c7 -15 8 -25
2 -25 -6 0 -10 4 -10 9 0 5 -7 17 -16 25 -12 13 -13 16 -1 16 7 0 19 -11 25
-25z m809 -17 c-3 -8 -6 -5 -6 6 -1 11 2 17 5 13 3 -3 4 -12 1 -19z m-542 2
c-3 -5 -1 -10 4 -10 22 0 10 -18 -14 -22 -19 -4 -25 -1 -25 12 0 9 3 20 7 23
10 11 35 8 28 -3z m-215 -29 c0 -9 -24 -21 -41 -21 -14 0 14 29 29 30 6 0 12
-4 12 -9z m495 -50 c-6 -45 -5 -51 17 -62 13 -7 28 -12 33 -10 6 1 -1 -9 -14
-23 -18 -20 -27 -23 -33 -14 -5 9 -8 7 -9 -7 -1 -14 -4 -10 -11 13 -6 17 -16
32 -22 32 -6 0 -4 4 4 10 16 10 22 60 8 60 -5 0 -2 7 6 16 9 8 16 20 16 25 0
5 3 9 6 9 3 0 3 -22 -1 -49z m1177 26 c7 -8 27 -18 43 -24 17 -5 30 -15 29
-21 -1 -7 -2 -23 -2 -37 -2 -19 -7 -25 -24 -25 -28 1 -103 84 -94 105 7 19 30
19 48 2z m-1742 -15 c0 -13 -39 -46 -46 -39 -3 3 3 14 13 25 19 22 33 27 33
14z m1405 -3 c11 -17 -1 -21 -15 -4 -8 9 -8 15 -2 15 6 0 14 -5 17 -11z
m-1115 -17 c0 -9 9 -23 20 -30 16 -10 20 -10 20 1 0 7 13 18 29 24 26 10 29 9
28 -8 -1 -11 -9 -19 -18 -19 -22 0 -32 -41 -15 -58 10 -11 15 -10 26 2 10 13
10 16 -4 16 -9 0 -16 5 -16 10 0 6 13 4 30 -5 26 -14 30 -13 38 1 15 26 22 1
12 -37 -14 -47 -13 -52 10 -46 11 3 20 1 20 -4 0 -5 -4 -9 -9 -9 -5 0 -16 -3
-25 -6 -12 -5 -16 0 -16 20 0 21 -5 26 -25 26 -13 0 -39 9 -57 20 -18 11 -27
20 -20 20 6 0 12 5 12 10 0 18 -29 11 -40 -9 -13 -25 -13 -44 0 -36 18 11 10
-7 -12 -26 -26 -23 -38 -24 -38 -4 0 8 7 15 16 15 13 0 14 3 4 15 -10 12 -9
16 4 21 18 7 16 66 -3 72 -20 7 -13 42 9 42 12 0 20 -7 20 -18z m325 -22 c-3
-5 -11 -10 -16 -10 -6 0 -7 5 -4 10 3 6 11 10 16 10 6 0 7 -4 4 -10z m-100
-20 c-10 -11 -23 -20 -28 -20 -6 0 -2 9 8 20 10 11 23 20 28 20 6 0 2 -9 -8
-20z m1145 10 c0 -5 -4 -10 -10 -10 -5 0 -10 5 -10 10 0 6 5 10 10 10 6 0 10
-4 10 -10z m-1595 -10 c3 -6 -1 -7 -9 -4 -18 7 -21 14 -7 14 6 0 13 -4 16 -10z
m138 -43 c4 3 7 -2 7 -13 0 -10 3 -30 7 -44 l6 -25 -22 22 c-11 12 -27 20 -34
17 -17 -6 -20 34 -4 51 10 12 14 11 23 0 6 -8 14 -12 17 -8z m37 -22 c0 -8 -4
-15 -10 -15 -5 0 -10 7 -10 15 0 8 5 15 10 15 6 0 10 -7 10 -15z m1800 -76
c22 -23 40 -45 40 -50 0 -11 -31 -27 -66 -33 -16 -3 -33 -12 -39 -19 -8 -11
-15 -8 -33 15 -13 15 -19 28 -13 28 6 0 11 -4 11 -10 0 -5 14 -10 30 -10 21 0
30 5 30 16 0 10 -6 14 -15 11 -8 -4 -17 -2 -20 3 -4 6 8 10 27 10 31 1 32 1
14 15 -26 20 -56 19 -73 -2 -13 -16 -13 -16 -4 3 6 12 7 24 4 28 -3 3 1 6 9 6
9 0 21 7 28 15 18 22 26 19 70 -26z m-1630 8 c0 -6 -3 -7 -6 -4 -4 3 -15 2
-26 -4 -18 -9 -18 -8 -9 10 11 20 41 19 41 -2z m1470 -33 c0 -8 -4 -14 -10
-14 -5 0 -10 9 -10 21 0 11 5 17 10 14 6 -3 10 -13 10 -21z m300 -40 c0 -8 -4
-12 -10 -9 -5 3 -10 10 -10 16 0 5 5 9 10 9 6 0 10 -7 10 -16z m-313 -36 c-3
-8 -6 -5 -6 6 -1 11 2 17 5 13 3 -3 4 -12 1 -19z m58 -18 c3 -5 1 -10 -4 -10
-6 0 -11 5 -11 10 0 6 2 10 4 10 3 0 8 -4 11 -10z m-248 -170 c2 0 3 -7 3 -16
0 -14 -54 -44 -80 -44 -14 0 -13 48 2 64 9 9 21 11 43 5 16 -5 31 -9 32 -9z
m-137 -55 c5 -14 13 -25 18 -25 4 0 18 -9 30 -20 17 -16 26 -18 47 -10 41 16
54 12 68 -17 6 -16 19 -33 27 -40 10 -8 15 -30 16 -70 0 -57 0 -58 -28 -59
-15 -1 -28 2 -28 6 0 13 -90 100 -104 100 -23 0 -43 34 -51 85 -4 28 -12 56
-17 63 -7 8 -7 12 1 12 6 0 16 -11 21 -25z m-64 -112 c-11 -11 -17 4 -9 23 7
18 8 18 11 1 2 -10 1 -21 -2 -24z m60 -51 c-9 -2 -16 -8 -16 -13 0 -6 -12 -26
-26 -45 -25 -32 -25 -35 -10 -58 8 -14 26 -26 38 -29 22 -3 22 -4 3 -11 -11
-4 -26 -10 -33 -12 -7 -2 -17 -16 -24 -31 -8 -19 -12 -23 -15 -12 -2 8 3 28
11 43 17 34 4 66 -29 67 -81 2 -107 21 -72 50 21 17 22 17 27 -4 4 -13 14 -22
25 -22 11 0 23 -4 27 -10 4 -5 9 -7 10 -5 2 3 16 20 31 39 26 31 27 35 11 52
-13 15 -14 20 -2 32 11 13 16 13 36 -6 20 -18 21 -23 8 -25z m75 -114 l8 -31
-22 20 c-12 11 -30 24 -39 29 -17 9 -17 11 -2 33 l16 22 15 -21 c8 -11 19 -35
24 -52z m89 22 c15 -8 17 -18 13 -52 -5 -35 -4 -40 10 -35 15 6 25 -8 28 -38
0 -5 5 -19 11 -30 6 -12 -1 -9 -18 10 -15 16 -34 30 -42 30 -19 0 -44 70 -36
101 7 27 8 28 34 14z m278 -55 c3 -3 -4 -5 -16 -5 -11 0 -23 4 -27 9 -6 10 33
6 43 -4z m-383 -25 c3 -5 15 -10 26 -10 10 0 19 -7 19 -15 0 -21 -7 -19 -42
10 -16 14 -25 25 -19 25 5 0 13 -4 16 -10z m370 -10 c3 -5 -3 -10 -15 -10 -12
0 -18 5 -15 10 3 6 10 10 15 10 5 0 12 -4 15 -10z m-525 -24 c0 -8 -4 -17 -8
-20 -13 -8 -35 11 -28 23 10 16 36 14 36 -3z m496 -22 c-3 -9 -6 -18 -6 -20 0
-3 -4 -3 -10 1 -11 7 -2 35 12 35 6 0 7 -7 4 -16z m-206 -124 c0 -5 -12 -10
-26 -10 -14 0 -23 4 -19 10 3 6 15 10 26 10 10 0 19 -4 19 -10z m1741 -92 c15
-28 5 -21 -21 15 -15 20 -17 27 -6 18 9 -8 22 -23 27 -33z m-289 -53 c-7 -37
36 -135 59 -135 12 0 19 -7 19 -19 0 -32 24 -44 45 -21 23 25 44 19 104 -26
24 -19 47 -31 52 -28 5 3 7 9 5 13 -3 4 1 8 9 8 11 0 12 -4 3 -14 -6 -7 -8
-16 -5 -20 4 -3 9 2 13 11 3 9 11 13 18 9 6 -4 -2 10 -17 30 -15 20 -25 37
-21 37 19 0 94 -52 88 -62 -4 -5 -1 -27 6 -47 11 -36 7 -58 -25 -133 -5 -13 9
-32 54 -75 34 -31 61 -60 61 -65 0 -4 -11 4 -25 17 -34 35 -63 32 -78 -9 -7
-18 -9 -18 -34 5 -18 16 -27 20 -30 12 -9 -27 -36 -11 -101 59 -107 115 -113
119 -146 116 -28 -3 -31 -7 -34 -39 -2 -27 -9 -39 -27 -47 -13 -6 -24 -19 -25
-29 0 -10 -3 -40 -6 -67 -5 -39 -2 -53 15 -77 12 -16 17 -29 11 -29 -5 0 -10
3 -10 8 0 4 -11 19 -25 34 -21 23 -29 26 -50 18 -14 -5 -25 -6 -26 -2 -1 4 -4
-4 -8 -18 -7 -21 -10 -16 -20 35 -7 33 -18 72 -23 88 -9 22 -7 31 7 47 22 25
47 27 38 3 -5 -12 -3 -14 8 -8 8 5 21 10 29 10 8 1 22 2 30 3 8 1 20 17 26 35
11 36 8 61 -6 52 -19 -11 -17 12 2 35 11 14 16 19 12 11 -4 -9 -2 -12 7 -9 15
5 15 80 0 133 -5 17 -15 56 -22 89 -12 57 -12 59 10 77 28 23 40 18 33 -16z
m-1362 10 c0 -8 -4 -15 -10 -15 -5 0 -10 7 -10 15 0 8 5 15 10 15 6 0 10 -7
10 -15z m960 -11 c30 -3 65 -4 78 -4 19 0 22 -4 17 -21 -5 -16 -4 -19 5 -14 9
5 11 4 6 -4 -4 -6 -11 -9 -15 -6 -5 2 -13 -7 -20 -21 -8 -18 -17 -24 -27 -20
-37 14 -64 18 -64 8 0 -26 -32 -19 -63 14 -37 41 -56 71 -38 60 6 -4 14 0 17
9 5 12 13 15 28 10 11 -4 46 -9 76 -11z m464 -20 c4 -9 4 -19 2 -21 -8 -8 -26
8 -26 23 0 19 16 18 24 -2z m284 -19 c-3 -3 -9 2 -12 12 -6 14 -5 15 5 6 7 -7
10 -15 7 -18z m-43 -6 c4 -6 -2 -13 -14 -16 -15 -4 -21 -14 -22 -37 0 -17 -3
-25 -6 -18 -9 22 7 82 22 82 8 0 17 -5 20 -11z m-495 -59 c0 -24 -6 -25 -25
-6 -15 15 -10 26 12 26 7 0 13 -9 13 -20z m-302 -23 c6 -7 9 -25 7 -39 -3 -15
1 -31 10 -38 23 -19 19 -77 -5 -90 -24 -13 -26 -33 -5 -53 8 -8 12 -17 9 -20
-3 -3 5 -8 17 -12 14 -5 25 -3 27 4 2 6 8 11 14 11 5 0 18 10 28 22 l18 22 19
-44 c25 -55 30 -170 9 -170 -8 0 -16 -13 -18 -29 -2 -17 -2 -30 1 -29 23 2 33
-6 48 -38 17 -34 17 -37 0 -48 -15 -12 -13 -13 14 -14 23 0 29 3 25 14 -4 11
1 10 21 -3 15 -10 24 -12 20 -5 -5 7 -3 12 3 12 6 0 8 5 5 10 -3 6 -2 10 3 10
5 0 12 9 15 20 3 11 1 20 -4 20 -4 0 -6 6 -3 13 5 15 41 20 49 6 4 -5 1 -9 -4
-9 -20 0 -11 -38 17 -69 61 -68 94 -111 83 -111 -6 0 -11 5 -11 10 0 6 -8 13
-17 17 -10 3 -30 15 -45 25 -40 28 -81 26 -118 -5 -30 -26 -57 -36 -46 -18 3
4 -12 16 -33 27 -23 11 -42 29 -49 46 -10 28 -35 37 -47 18 -12 -19 -24 -10
-31 25 -3 20 -12 35 -20 35 -8 0 -11 -6 -8 -14 4 -10 -6 -20 -32 -31 -34 -14
-39 -14 -58 2 -11 10 -26 24 -32 32 -6 8 -16 11 -24 6 -8 -5 -11 -4 -6 3 3 6
2 13 -3 16 -5 3 -7 15 -4 26 3 11 0 27 -7 35 -7 9 -10 27 -7 45 4 16 2 32 -3
35 -6 4 -7 12 -3 18 4 7 7 21 8 32 0 16 6 19 28 17 27 -3 37 11 16 24 -7 4 -8
22 -4 53 4 25 8 52 8 59 0 6 3 10 5 7 9 -8 92 89 92 108 0 20 13 22 28 4z
m136 -3 c25 -9 19 -33 -10 -40 -17 -4 -31 -1 -41 9 -27 27 7 48 51 31z m-859
-94 c-12 -19 -25 -10 -25 16 0 23 1 24 16 10 8 -9 12 -20 9 -26z m1090 1 c3
-5 1 -12 -5 -16 -5 -3 -10 1 -10 9 0 18 6 21 15 7z m217 -209 c2 -20 15 -32
56 -52 58 -29 103 -84 76 -94 -28 -11 -134 49 -134 75 0 6 14 -1 31 -15 28
-24 49 -27 49 -7 0 8 -73 51 -88 51 -5 0 -12 -8 -14 -18 -5 -18 -39 -24 -54
-10 -9 10 15 48 31 48 17 0 30 43 19 62 -6 10 -5 10 8 0 9 -8 18 -25 20 -40z
m48 -7 c21 -25 1 -31 -22 -7 -18 18 -19 22 -6 22 8 0 21 -7 28 -15z m-1175
-75 c3 -5 1 -10 -4 -10 -6 0 -11 5 -11 10 0 6 2 10 4 10 3 0 8 -4 11 -10z
m-174 -41 l24 -20 -28 17 c-15 9 -36 14 -47 11 -11 -3 -18 -1 -14 4 9 15 41
10 65 -12z m78 -43 c-2 -2 -13 8 -23 22 l-19 27 24 -22 c12 -12 21 -24 18 -27z
m1520 8 c2 -2 -19 -4 -48 -4 -32 0 -50 4 -46 10 5 9 83 4 94 -6z m49 -4 c7
-11 11 -20 9 -20 -2 0 -12 9 -22 20 -10 11 -14 20 -9 20 5 0 15 -9 22 -20z
m-1661 -26 c-4 -4 -19 -1 -34 6 -26 12 -27 13 -8 20 21 8 55 -13 42 -26z m51
11 c-3 -3 -9 2 -12 12 -6 14 -5 15 5 6 7 -7 10 -15 7 -18z m1367 5 c3 -5 2
-17 -3 -26 -8 -14 -10 -14 -21 0 -13 15 -8 36 9 36 5 0 12 -4 15 -10z m235
-57 c11 -12 11 -14 1 -8 -8 4 -32 14 -55 22 l-41 13 40 -6 c22 -3 47 -13 55
-21z m-400 -28 c0 -5 -5 -3 -10 5 -5 8 -10 20 -10 25 0 6 5 3 10 -5 5 -8 10
-19 10 -25z m-966 -2 c3 -7 12 -13 19 -13 8 0 20 -7 27 -15 7 -9 19 -14 26
-11 14 5 34 -22 34 -46 0 -8 -7 -5 -18 8 -9 11 -38 33 -64 47 -51 30 -65 44
-43 44 8 0 16 -6 19 -14z m236 6 c0 -15 -29 -17 -47 -3 -17 13 -15 14 15 12
17 -1 32 -5 32 -9z m1222 -19 c9 0 19 -4 22 -8 10 -17 -64 1 -80 19 -17 19
-17 20 12 4 16 -8 37 -15 46 -15z m-1272 -41 c0 -5 -7 -9 -15 -9 -9 0 -12 6
-9 15 6 15 24 11 24 -6z m1250 -12 c0 -5 -4 -5 -10 -2 -5 3 -10 14 -10 23 0
15 2 15 10 2 5 -8 10 -19 10 -23z m-800 -72 l0 -53 -31 15 c-16 8 -39 13 -49
10 -16 -4 -17 -2 -7 14 6 10 14 14 17 8 5 -6 16 -6 33 0 29 11 35 39 15 60
-11 10 -10 11 5 6 13 -6 17 -19 17 -60z m-485 35 c3 -6 -1 -7 -9 -4 -18 7 -21
14 -7 14 6 0 13 -4 16 -10z m465 -14 c0 -3 -4 -8 -10 -11 -5 -3 -10 -1 -10 4
0 6 5 11 10 11 6 0 10 -2 10 -4z"/>
<path d="M820 3823 c-104 -27 -175 -54 -197 -75 -13 -12 -21 -23 -19 -25 3 -4
93 29 131 47 11 6 34 14 50 20 131 40 157 65 35 33z"/>
<path d="M499 3228 c-7 -14 -4 -50 5 -57 27 -22 55 -22 66 -1 9 18 8 25 -6 41
-14 15 -60 27 -65 17z"/>
<path d="M860 2810 c0 -5 7 -10 16 -10 8 0 12 5 9 10 -3 6 -10 10 -16 10 -5 0
-9 -4 -9 -10z"/>
<path d="M1725 3390 c-8 -13 3 -30 19 -30 7 0 21 7 32 16 16 13 16 15 2 10
-10 -3 -20 -1 -23 4 -8 13 -22 13 -30 0z"/>
<path d="M1670 3386 c0 -2 7 -7 16 -10 8 -3 12 -2 9 4 -6 10 -25 14 -25 6z"/>
<path d="M1715 3340 c-3 -5 -1 -10 4 -10 6 0 11 5 11 10 0 6 -2 10 -4 10 -3 0
-8 -4 -11 -10z"/>
<path d="M1750 3323 c0 -5 5 -15 10 -23 8 -12 10 -11 10 8 0 12 -4 22 -10 22
-5 0 -10 -3 -10 -7z"/>
<path d="M1725 3260 c3 -5 8 -10 11 -10 2 0 4 5 4 10 0 6 -5 10 -11 10 -5 0
-7 -4 -4 -10z"/>
<path d="M1926 3288 c-6 -24 18 -58 40 -58 7 0 14 -3 17 -7 2 -5 2 -1 -1 7 -5
18 -10 42 -11 52 -1 4 -10 12 -20 17 -15 9 -20 7 -25 -11z m29 -18 c3 -6 -1
-7 -9 -4 -18 7 -21 14 -7 14 6 0 13 -4 16 -10z"/>
<path d="M1990 3240 c6 -11 18 -20 27 -20 14 0 14 2 -2 20 -10 11 -22 20 -27
20 -5 0 -4 -9 2 -20z"/>
<path d="M1768 3173 c7 -3 16 -2 19 1 4 3 -2 6 -13 5 -11 0 -14 -3 -6 -6z"/>
<path d="M2073 3156 c1 -11 9 -21 17 -23 10 -3 11 -2 4 4 -6 4 -14 15 -17 23
-5 11 -6 9 -4 -4z"/>
<path d="M1775 3120 c-10 -11 -15 -20 -11 -20 4 0 19 9 33 20 17 13 20 20 11
20 -8 0 -23 -9 -33 -20z"/>
<path d="M1954 3130 c-26 -10 -38 -26 -25 -34 10 -6 59 29 51 37 -3 3 -15 1
-26 -3z"/>
<path d="M2110 3121 c0 -6 4 -13 10 -16 6 -3 7 1 4 9 -7 18 -14 21 -14 7z"/>
<path d="M2220 3038 c0 -8 9 -23 20 -33 16 -15 20 -15 20 -3 0 8 -9 23 -20 33
-16 15 -20 15 -20 3z"/>
<path d="M2140 2900 c0 -15 7 -20 27 -20 25 0 26 0 8 20 -10 11 -22 20 -27 20
-4 0 -8 -9 -8 -20z"/>
<path d="M1081 3284 c0 -11 3 -14 6 -6 3 7 2 16 -1 19 -3 4 -6 -2 -5 -13z"/>
<path d="M1132 3243 c-13 -25 -4 -43 21 -42 12 0 16 3 10 6 -7 2 -13 12 -13
20 0 10 6 13 16 9 10 -4 14 -1 12 6 -7 20 -36 21 -46 1z"/>
<path d="M1220 3160 c0 -5 5 -10 10 -10 6 0 10 5 10 10 0 6 -4 10 -10 10 -5 0
-10 -4 -10 -10z"/>
<path d="M2445 2520 c3 -5 8 -10 11 -10 2 0 4 5 4 10 0 6 -5 10 -11 10 -5 0
-7 -4 -4 -10z"/>
<path d="M4033 1665 c0 -14 3 -22 8 -19 5 3 9 11 9 19 0 8 -4 16 -9 19 -5 3
-8 -5 -8 -19z"/>
<path d="M4232 1609 c2 -7 10 -15 17 -17 8 -3 12 1 9 9 -2 7 -10 15 -17 17 -8
3 -12 -1 -9 -9z"/>
<path d="M4204 1566 c-21 -16 -14 -28 19 -33 16 -2 18 -1 8 6 -11 7 -10 10 5
14 17 4 17 5 1 6 -10 0 -15 6 -12 11 9 14 2 13 -21 -4z"/>
<path d="M4270 1521 c0 -6 4 -13 10 -16 6 -3 7 1 4 9 -7 18 -14 21 -14 7z"/>
<path d="M3375 1470 c3 -5 8 -10 11 -10 2 0 4 5 4 10 0 6 -5 10 -11 10 -5 0
-7 -4 -4 -10z"/>
<path d="M3400 1414 c0 -8 5 -12 10 -9 6 3 10 10 10 16 0 5 -4 9 -10 9 -5 0
-10 -7 -10 -16z"/>
<path d="M3566 1355 c-9 -26 -7 -32 5 -12 6 10 9 21 6 23 -2 3 -7 -2 -11 -11z"/>
<path d="M4160 1405 c7 -9 15 -13 17 -11 7 7 -7 26 -19 26 -6 0 -6 -6 2 -15z"/>
<path d="M2910 3510 c-7 -4 -10 -31 -8 -66 3 -55 5 -59 28 -62 40 -5 109 77
90 108 -9 15 -94 30 -110 20z m90 -40 c0 -5 -7 -10 -15 -10 -8 0 -15 5 -15 10
0 6 7 10 15 10 8 0 15 -4 15 -10z m-53 -32 c-3 -7 -5 -2 -5 12 0 14 2 19 5 13
2 -7 2 -19 0 -25z"/>
<path d="M1863 2932 c-16 -2 -23 -10 -23 -27 0 -26 13 -34 50 -29 14 1 28 3
33 3 11 1 8 29 -5 37 -6 4 -8 3 -4 -4 8 -13 -26 -25 -49 -16 -15 6 -13 9 11
19 31 12 22 23 -13 17z"/>
<path d="M1682 2808 c-7 -7 -12 -39 -12 -79 0 -62 2 -67 24 -71 29 -6 56 8 56
27 0 7 8 27 17 43 26 46 9 86 -37 90 -19 2 -41 -3 -48 -10z m42 -72 c-3 -15
-8 -25 -11 -23 -2 3 -1 17 3 31 3 15 8 25 11 23 2 -3 1 -17 -3 -31z"/>
<path d="M1836 2745 c-3 -9 -10 -13 -16 -10 -6 3 -10 -4 -10 -16 0 -18 2 -19
15 -9 17 14 19 7 6 -38 -12 -41 8 -45 27 -5 16 35 15 68 -2 82 -11 9 -15 8
-20 -4z"/>
<path d="M1995 2721 c-8 -27 -35 -35 -35 -11 0 22 -16 27 -23 8 -6 -20 10 -80
25 -89 43 -28 108 10 108 61 0 45 -62 71 -75 31z"/>
<path d="M2050 2624 c-35 -19 -50 -43 -50 -80 0 -63 85 -88 128 -39 13 14 27
23 33 20 16 -11 39 16 39 46 0 33 -23 59 -53 60 -12 0 -33 2 -47 4 -14 2 -36
-3 -50 -11z m110 -48 c0 -2 -9 -6 -20 -9 -11 -3 -20 -1 -20 4 0 5 9 9 20 9 11
0 20 -2 20 -4z m-70 -20 c0 -8 -4 -18 -10 -21 -5 -3 -10 3 -10 14 0 12 5 21
10 21 6 0 10 -6 10 -14z"/>
<path d="M1880 2590 c0 -5 5 -10 10 -10 6 0 10 5 10 10 0 6 -4 10 -10 10 -5 0
-10 -4 -10 -10z"/>
<path d="M4057 2504 c-16 -16 -6 -42 17 -46 32 -6 46 3 42 27 -3 20 -44 33
-59 19z"/>
<path d="M1930 2376 c0 -8 5 -18 10 -21 7 -4 6 -13 -1 -26 -7 -14 -14 -17 -22
-11 -24 19 -63 22 -85 6 -30 -20 -28 -52 3 -66 14 -6 28 -22 31 -35 4 -13 12
-23 20 -23 8 0 14 -4 14 -10 0 -21 20 -9 36 22 10 19 14 44 11 65 -3 18 -2 33
3 33 16 0 23 49 10 65 -16 19 -30 19 -30 1z m-29 -103 c13 -16 12 -17 -3 -4
-10 7 -18 15 -18 17 0 8 8 3 21 -13z"/>
<path d="M1905 2367 c-4 -11 -3 -23 4 -30 15 -15 19 -7 11 23 -6 22 -8 23 -15
7z"/>
<path d="M2020 2244 c-14 -35 -12 -50 6 -68 8 -9 11 -16 6 -16 -5 0 -15 -13
-22 -29 -6 -16 -20 -37 -31 -47 -10 -9 -19 -27 -19 -39 0 -23 24 -40 41 -29 5
3 19 -2 31 -10 12 -9 35 -16 50 -16 21 0 29 6 34 26 4 16 12 23 20 20 8 -3 19
4 25 15 8 16 7 26 -5 44 -9 14 -16 31 -16 40 0 9 -7 18 -15 21 -20 8 -19 24 1
24 13 0 15 6 10 28 -15 60 -97 87 -116 36z m68 -23 c10 -6 9 -10 -7 -14 -21
-5 -36 5 -24 17 8 8 15 7 31 -3z m-13 -51 c3 -5 -1 -10 -10 -10 -9 0 -13 5
-10 10 3 6 8 10 10 10 2 0 7 -4 10 -10z m11 -94 c-17 -27 -36 -34 -36 -15 0 5
6 7 13 3 7 -5 6 -1 -3 10 -13 16 -12 20 5 32 28 21 42 1 21 -30z"/>
<path d="M2297 2152 c-20 -22 -22 -63 -5 -80 15 -15 57 -16 92 -2 21 8 26 16
26 43 0 18 -5 38 -12 45 -19 19 -82 15 -101 -6z m70 -38 c-3 -3 -12 -4 -19 -1
-8 3 -5 6 6 6 11 1 17 -2 13 -5z"/>
<path d="M2225 2140 c3 -5 8 -10 11 -10 2 0 4 5 4 10 0 6 -5 10 -11 10 -5 0
-7 -4 -4 -10z"/>
<path d="M2367 1893 c-12 -12 -7 -50 7 -62 22 -18 70 -10 74 12 7 36 -56 75
-81 50z"/>
<path d="M2228 1829 c-23 -13 -20 -59 6 -82 24 -21 37 -18 56 15 11 21 12 31
2 52 -12 27 -35 32 -64 15z"/>
<path d="M2486 1808 c-28 -40 -21 -72 24 -102 48 -32 53 -32 45 -3 -7 21 -6
21 7 3 14 -18 15 -18 21 4 3 12 -2 43 -11 69 -14 37 -23 47 -44 49 -18 2 -31
-4 -42 -20z"/>
<path d="M2315 1778 c-2 -7 -3 -37 -2 -65 2 -39 9 -59 27 -78 38 -40 15 -41
-27 0 -32 31 -39 34 -42 19 -2 -10 -10 -24 -17 -32 -23 -22 -45 2 -37 40 4 22
3 29 -5 24 -18 -11 -15 -81 4 -97 9 -8 25 -33 35 -56 20 -47 54 -67 95 -57 18
5 32 0 49 -16 20 -19 32 -22 70 -18 25 3 52 11 60 18 29 24 13 90 -21 90 -21
0 -75 -52 -70 -66 6 -16 -3 -18 -24 -4 -12 7 -9 15 18 41 18 18 31 38 28 45
-2 6 -2 15 1 18 4 3 8 30 10 60 4 46 1 56 -17 69 -12 8 -25 28 -29 43 -7 26
-12 29 -54 32 -32 2 -49 -1 -52 -10z m93 -123 c-5 -24 -27 -2 -34 35 l-7 35
22 -28 c12 -15 21 -34 19 -42z m14 -52 c6 -24 -1 -53 -13 -53 -5 0 -9 16 -9
35 0 36 15 48 22 18z m-108 -29 c9 -3 16 -15 16 -26 0 -28 -34 -19 -38 10 -4
24 -2 25 22 16z m60 -43 c-2 -3 -12 3 -22 13 -16 17 -16 18 5 5 12 -7 20 -15
17 -18z m116 -41 c-8 -5 -19 -10 -25 -10 -5 0 -3 5 5 10 8 5 20 10 25 10 6 0
3 -5 -5 -10z"/>
<path d="M2240 1670 c0 -5 5 -10 10 -10 6 0 10 5 10 10 0 6 -4 10 -10 10 -5 0
-10 -4 -10 -10z"/>
<path d="M2563 1369 c-13 -5 -23 -11 -23 -14 0 -4 6 -3 13 1 9 6 9 5 0 -7 -10
-12 -9 -20 3 -37 18 -26 56 -29 75 -6 11 13 11 20 -1 42 -17 28 -34 34 -67 21z"/>
<path d="M4050 1242 c0 -4 11 -9 26 -10 14 -1 23 2 19 8 -7 12 -45 14 -45 2z"/>
<path d="M4066 1210 c-16 -5 -17 -8 -4 -12 16 -7 45 7 32 14 -5 3 -18 2 -28
-2z"/>
</g>
</svg>
